<svg id="Layer_1" data-name="Layer 1" xmlns="http://www.w3.org/2000/svg" viewBox="0 0 262 140"><defs><style>.cls-1{fill:#fff;}.cls-2{fill:#e00;}</style></defs><title>Brand_Standards-Red_Hat-Color_example_reverse-RGB</title><rect id="Rectangle_45" data-name="Rectangle 45" width="262" height="140"/><g id="Group_150" data-name="Group 150"><g id="Group_79" data-name="Group 79"><path id="Path_377" data-name="Path 377" class="cls-1" d="M74.36,75.31H85.67v2h-9v4.6h5.91v2H76.67v4.74h9.09v2H74.36Z"/><path id="Path_378" data-name="Path 378" class="cls-1" d="M87.86,79.5h2.19v1.12a4.58,4.58,0,0,1,3.35-1.34,4.16,4.16,0,0,1,4.36,4,2.67,2.67,0,0,1,0,.4v7H95.57V84a2.6,2.6,0,0,0-2.36-2.82h-.4a3.18,3.18,0,0,0-2.76,1.45v8H87.86Z"/><path id="Path_379" data-name="Path 379" class="cls-1" d="M101.29,81.34H98.92V79.5h2.37V76.65l2.17-.52V79.5h3.28v1.84h-3.28v6c0,1.14.46,1.55,1.64,1.55a4.17,4.17,0,0,0,1.6-.26v1.84a7.35,7.35,0,0,1-2.08.33c-2.17,0-3.33-1-3.33-3Z"/><path id="Path_380" data-name="Path 380" class="cls-1" d="M113.47,90.85a5.74,5.74,0,0,1-5.85-5.63v-.16a5.59,5.59,0,0,1,5.46-5.73h.13A5.52,5.52,0,0,1,118.6,85v.82h-8.81a3.76,3.76,0,0,0,3.77,3.2,4.32,4.32,0,0,0,2.82-1l1.4,1.38A6.67,6.67,0,0,1,113.47,90.85Zm-3.66-6.7h6.62a3.33,3.33,0,0,0-6.62,0Z"/><path id="Path_381" data-name="Path 381" class="cls-1" d="M120.68,79.5h2.19v1.42a3.48,3.48,0,0,1,3.07-1.66,2.78,2.78,0,0,1,1.11.17v2a4,4,0,0,0-1.29-.24,3.05,3.05,0,0,0-2.89,2v7.45h-2.19Z"/><path id="Path_382" data-name="Path 382" class="cls-1" d="M128.8,79.5H131v1.07a5.12,5.12,0,0,1,3.42-1.25A5.62,5.62,0,0,1,140,84.94v.12a5.63,5.63,0,0,1-5.51,5.76h-.16a5.54,5.54,0,0,1-3.35-1.1v5.46h-2.2Zm2.2,3.07v5a4.1,4.1,0,0,0,3.11,1.31,3.72,3.72,0,0,0,3.77-3.66v-.17a3.75,3.75,0,0,0-3.64-3.86h-.13A4,4,0,0,0,131,82.57Z"/><path id="Path_383" data-name="Path 383" class="cls-1" d="M142.1,79.5h2.19v1.42a3.5,3.5,0,0,1,3.07-1.66,2.86,2.86,0,0,1,1.12.17v2a4,4,0,0,0-1.29-.24,3.06,3.06,0,0,0-2.9,2v7.45H142.1Z"/><path id="Path_384" data-name="Path 384" class="cls-1" d="M150,76.34A1.34,1.34,0,0,1,151.33,75h0a1.36,1.36,0,1,1,0,2.71A1.34,1.34,0,0,1,150,76.34Zm2.43,14.31h-2.19V79.5h2.19Z"/><path id="Path_385" data-name="Path 385" class="cls-1" d="M155.14,87.76a5.84,5.84,0,0,0,3.64,1.4c1.57,0,2.67-.68,2.67-1.67,0-.79-.57-1.25-1.8-1.42l-2-.29c-2.21-.32-3.33-1.35-3.33-3.08,0-2,1.76-3.38,4.36-3.38a7.62,7.62,0,0,1,4.49,1.43L162,82.19A6.21,6.21,0,0,0,158.51,81c-1.34,0-2.24.61-2.24,1.51s.53,1.2,1.84,1.4l2,.29c2.21.33,3.37,1.38,3.37,3.11,0,2-2,3.5-4.66,3.5A7.35,7.35,0,0,1,154,89.2Z"/><path id="Path_386" data-name="Path 386" class="cls-1" d="M170.65,90.85a5.74,5.74,0,0,1-5.85-5.63v-.16a5.59,5.59,0,0,1,5.46-5.73h.13A5.52,5.52,0,0,1,175.78,85v.82H167a3.76,3.76,0,0,0,3.77,3.2,4.37,4.37,0,0,0,2.82-1l1.4,1.38A6.67,6.67,0,0,1,170.65,90.85ZM167,84.15h6.62a3.33,3.33,0,0,0-6.62,0Z"/><path id="Path_387" data-name="Path 387" class="cls-1" d="M182.7,75.31H185v13.3h8.83v2H182.7Z"/><path id="Path_388" data-name="Path 388" class="cls-1" d="M195.65,76.34A1.33,1.33,0,0,1,197,75h0a1.36,1.36,0,0,1,0,2.71,1.34,1.34,0,0,1-1.34-1.35Zm2.43,14.31h-2.19V79.5h2.19Z"/><path id="Path_389" data-name="Path 389" class="cls-1" d="M200.67,79.5h2.19v1.12a4.56,4.56,0,0,1,3.35-1.34,4.16,4.16,0,0,1,4.36,4v7.41h-2.19V84A2.6,2.6,0,0,0,206,81.19h-.4a3.18,3.18,0,0,0-2.76,1.45v8h-2.19Z"/><path id="Path_390" data-name="Path 390" class="cls-1" d="M215.13,86.12A2.61,2.61,0,0,0,217.49,89a2.67,2.67,0,0,0,.4,0,3.15,3.15,0,0,0,2.74-1.46v-8h2.19V90.65h-2.19V89.53a4.58,4.58,0,0,1-3.36,1.34,4.17,4.17,0,0,1-4.34-4c0-.14,0-.27,0-.41v-7h2.19Z"/><path id="Path_391" data-name="Path 391" class="cls-1" d="M228.49,84.93l-4.16-5.43h2.56l2.87,3.83,2.87-3.83h2.48L231,84.91l4.4,5.74H232.8l-3.06-4.12-3.12,4.12h-2.47Z"/></g><g id="Group_81" data-name="Group 81"><g id="Group_80" data-name="Group 80"><path id="Path_392" data-name="Path 392" class="cls-2" d="M53.36,62.31c2.64,0,6.45-.55,6.45-3.68a2.88,2.88,0,0,0-.06-.72l-1.57-6.82c-.37-1.5-.68-2.18-3.32-3.5-2-1-6.49-2.77-7.81-2.77s-1.59,1.59-3,1.59-2.45-1.18-3.77-1.18-2.09.86-2.73,2.63c0,0-1.77,5-2,5.72a1.43,1.43,0,0,0,0,.41c0,1.94,7.64,8.31,17.89,8.31m6.86-2.4A10.2,10.2,0,0,1,60.58,62c0,3-3.31,4.59-7.67,4.59-9.86,0-18.49-5.77-18.49-9.59a3.9,3.9,0,0,1,.32-1.54c-3.54.18-8.13.82-8.13,4.86,0,6.63,15.72,14.8,28.16,14.8,9.54,0,11.94-4.31,11.94-7.72,0-2.68-2.31-5.72-6.49-7.54"/><path id="Path_393" data-name="Path 393" d="M60.22,59.9A9.67,9.67,0,0,1,60.58,62c0,2.95-3.31,4.58-7.67,4.58-9.86,0-18.48-5.76-18.48-9.58a3.85,3.85,0,0,1,.31-1.54l.78-1.91a1.13,1.13,0,0,0-.05.41c0,1.94,7.65,8.31,17.89,8.31,2.64,0,6.45-.55,6.45-3.68a2.92,2.92,0,0,0-.06-.72Z"/></g><path id="Path_394" data-name="Path 394" class="cls-1" d="M148.64,64.27c0,2.5,1.51,3.73,4.25,3.73a11.6,11.6,0,0,0,2.5-.36v-2.9a5.21,5.21,0,0,1-1.61.25c-1.13,0-1.55-.36-1.55-1.42V59.11h3.27v-3h-3.27V52.33l-3.59.78v3h-2.37v3h2.37Zm-11.15.07c0-.77.77-1.15,1.95-1.15a8.92,8.92,0,0,1,2.12.26V65a4.35,4.35,0,0,1-2.24.55c-1.15,0-1.83-.44-1.83-1.17m1.1,3.7a5.47,5.47,0,0,0,3.23-.91v.71h3.55V60.33c0-2.86-1.93-4.43-5.14-4.43a13,13,0,0,0-5.48,1.29L136,59.82a9.68,9.68,0,0,1,3.54-.93c1.49,0,2.24.58,2.24,1.75v.58a10.38,10.38,0,0,0-2.66-.34c-3,0-4.83,1.27-4.83,3.53,0,2.06,1.64,3.63,4.26,3.63m-19.48-.2h3.81V61.77h6.39v6.07h3.81V52.33h-3.81v6h-6.39v-6h-3.81ZM104.59,62a3,3,0,0,1,3-3h.11a3.64,3.64,0,0,1,2.48.91V64a3.45,3.45,0,0,1-2.48.93,3,3,0,0,1-3.08-2.88V62m5.61,5.87h3.54V51.56l-3.59.77v4.41a6.11,6.11,0,0,0-9.08,5.11V62A6,6,0,0,0,107,68h.1a5.27,5.27,0,0,0,3.15-1Zm-16.26-9a2.58,2.58,0,0,1,2.45,1.86h-4.9a2.45,2.45,0,0,1,2.44-1.86M87.88,62a6.17,6.17,0,0,0,6.23,6.08h.15a7,7,0,0,0,4.9-1.77l-2.37-2.1a3.13,3.13,0,0,1-2.34.89,3,3,0,0,1-2.88-1.86h8.35v-.89c0-3.72-2.5-6.4-5.92-6.4a6,6,0,0,0-6.11,5.92V62m-6.18-6.4a1.78,1.78,0,0,1,2,1.57c0,.06,0,.12,0,.18a1.78,1.78,0,0,1-1.8,1.76H77.94V55.6ZM74.13,67.85h3.81V62.2h2.9l2.92,5.65H88l-3.41-6.2a4.69,4.69,0,0,0,2.92-4.36c0-2.8-2.19-4.94-5.47-4.94H74.13Z"/></g></g></svg>